<svg width="120" height="48" viewBox="0 0 120 48" fill="none" xmlns="http://www.w3.org/2000/svg">
<g clip-path="url(#clip0_49_477)">
<g filter="url(#filter0_d_49_477)">
<path fill-rule="evenodd" clip-rule="evenodd" d="M67.3958 23.6529C67.3524 23.9311 67.2466 24.1959 67.0863 24.4275C66.926 24.659 66.7154 24.8512 66.4703 24.9898C65.9766 25.3086 65.5447 25.468 65.1077 25.6274C64.177 25.9488 63.1974 26.2702 62.1613 26.643C61.0687 27.0157 60.0891 27.3885 59.215 27.6585C58.1249 28.0313 57.0888 28.3526 56.1041 28.7254C55.3633 29.0425 54.6674 29.4556 54.0345 29.9544C53.4458 30.4877 52.9321 31.0983 52.5073 31.7695C52.0703 32.515 51.7952 33.4766 51.7952 34.5975C51.7952 36.842 52.3402 38.5491 53.4329 39.6161C54.523 40.7396 56.5438 41.2718 59.5389 41.2718C62.5933 41.2718 64.6655 40.6856 65.7607 39.5107C66.8482 38.3357 67.3932 36.6826 67.3932 34.5487V23.6529H67.3958ZM59.5415 0C64.8891 0 68.815 1.01553 71.3217 3.09802C73.831 5.12908 75.0856 7.74119 75.0856 10.8366V37.2148C75.0856 38.2817 74.8696 39.4567 74.4891 40.737C74.1035 42.0225 73.3425 43.1949 72.1418 44.2592C70.9977 45.3313 69.4166 46.2389 67.3984 46.933C65.3802 47.6272 62.7629 48 59.5441 48C56.3304 48 53.708 47.6272 51.6923 46.933C49.6767 46.2389 48.093 45.3313 46.9489 44.2592C45.8846 43.3001 45.0783 42.089 44.6042 40.737C44.2185 39.4592 44 38.2843 44 37.2174V33.001C44 30.7565 44.599 28.674 45.7997 26.8563C47.0003 24.9898 48.6894 23.7095 50.8722 22.9073C51.9623 22.5345 53.2169 22.1618 54.6335 21.681C56.0527 21.1976 57.3588 20.7169 58.6699 20.2927C59.9811 19.8633 61.1252 19.434 62.1048 19.0586C62.6959 18.8221 63.2963 18.6094 63.9044 18.421L64.8866 17.9402C65.2722 17.7268 65.6501 17.4055 66.0332 16.9787C66.4137 16.5545 66.7402 16.0737 67.0153 15.5389C67.306 14.9599 67.4557 14.3203 67.4524 13.6724V11.9627C67.4564 11.3361 67.3249 10.716 67.0667 10.145C66.8508 9.5023 66.4137 8.91612 65.8147 8.38393C65.2156 7.84917 64.3955 7.42239 63.416 7.09845C62.4338 6.78222 61.1278 6.62025 59.6521 6.62025C56.5977 6.62025 54.5795 7.21157 53.4894 8.43535C52.5639 9.50488 52.0189 10.8392 51.9109 12.3329C51.9109 12.6543 51.6383 12.8677 51.3093 12.8677L44.6582 12.9757C44.5002 12.9764 44.3483 12.9146 44.2356 12.8039C44.123 12.6931 44.0586 12.5423 44.0566 12.3844V10.8418C44.0566 9.3429 44.3317 7.95458 44.9307 6.62025C45.5323 5.28334 46.4604 4.16497 47.7125 3.20086C48.9671 2.24189 50.6048 1.44231 52.5665 0.907552C54.4767 0.26481 56.8214 0 59.5466 0H59.5415Z" fill="#0A3871"/>
<path d="M67.8932 34.5487V23.7082L67.9799 23.1529H67.3958H67.3932H66.8932V23.6247C66.8573 23.8105 66.7831 23.987 66.6752 24.1428C66.5578 24.3123 66.4037 24.4531 66.2242 24.5546L66.2114 24.5618L66.199 24.5698C65.7579 24.8547 65.3735 24.9982 64.9404 25.1562C64.6308 25.2631 64.313 25.3709 63.9881 25.4812C63.3493 25.6979 62.6828 25.924 61.9959 26.1711C61.5667 26.3175 61.1629 26.461 60.7792 26.5974C60.1643 26.8158 59.601 27.016 59.0675 27.1807L59.0603 27.183L59.0532 27.1854C58.705 27.3045 58.3578 27.4197 58.0136 27.534C57.2993 27.7711 56.5979 28.0039 55.9271 28.2578L55.9172 28.2616L55.9074 28.2658C55.1262 28.6 54.3925 29.0357 53.725 29.5616L53.7115 29.5723L53.6988 29.5838C53.0767 30.1474 52.5338 30.7927 52.0848 31.5021L52.0803 31.5093L52.076 31.5166C51.5905 32.3449 51.2952 33.3949 51.2952 34.5975C51.2952 36.9062 51.8537 38.7694 53.0788 39.9692C54.3217 41.2457 56.5275 41.7718 59.5389 41.7718C62.6194 41.7718 64.8805 41.1882 66.1264 39.8516L66.1276 39.8503C67.3257 38.5559 67.8932 36.7661 67.8932 34.5487ZM71.0022 3.48261L71.0022 3.48264L71.0071 3.48666C73.4027 5.42573 74.5856 7.89669 74.5856 10.8366V37.2148C74.5856 38.217 74.3823 39.3414 74.0099 40.5943C73.6541 41.7798 72.9497 42.8749 71.8101 43.8851L71.81 43.8849L71.7999 43.8944C70.7199 44.9065 69.2057 45.7827 67.2358 46.4602C65.2868 47.1306 62.7289 47.5 59.5441 47.5C56.3643 47.5 53.8014 47.1305 51.8551 46.4603C49.8875 45.7826 48.3708 44.9064 47.2908 43.8944L47.2909 43.8943L47.2836 43.8878C46.2843 42.9872 45.5266 41.8506 45.0796 40.5819C44.7045 39.3363 44.5 38.216 44.5 37.2174V33.001C44.5 30.8487 45.0733 28.8631 46.2169 27.1319L46.2169 27.1319L46.2202 27.1268C47.3546 25.3633 48.9496 24.1476 51.0394 23.3786C51.5584 23.2012 52.116 23.0234 52.7177 22.8316L52.7823 22.811C53.4091 22.6112 54.081 22.3965 54.7942 22.1545L54.7947 22.1543C55.3563 21.963 55.8942 21.7743 56.4194 21.5901C57.2384 21.3028 58.0262 21.0265 58.8239 20.7684L58.8255 20.7678C60.1485 20.3346 61.3016 19.9018 62.2837 19.5255L62.2837 19.5255L62.2905 19.5228C62.8692 19.2913 63.457 19.083 64.0524 18.8986L64.0894 18.8871L64.1243 18.8701L65.1064 18.3893L65.1177 18.3838L65.1286 18.3777C65.5779 18.1291 65.9982 17.7662 66.4053 17.3127L66.4054 17.3125C66.8166 16.8541 67.1669 16.3374 67.4599 15.7677L67.46 15.7677L67.4622 15.7632C67.788 15.1141 67.9559 14.3973 67.9524 13.671V11.9644C67.9566 11.2745 67.8134 10.5917 67.5325 9.96175C67.2782 9.22249 66.7823 8.57477 66.1468 8.01022C65.4805 7.4156 64.5924 6.96088 63.573 6.62373L63.573 6.62372L63.5692 6.62251C62.5201 6.2847 61.1575 6.12025 59.6521 6.12025C56.5687 6.12025 54.3568 6.70995 53.1161 8.10278L53.1161 8.10275L53.1114 8.10816C52.112 9.26297 51.5276 10.7007 51.4122 12.2969L51.4109 12.3149V12.3329C51.4109 12.3358 51.4107 12.3377 51.4105 12.3389C51.41 12.3394 51.4093 12.3401 51.4084 12.341C51.3995 12.3486 51.3682 12.3677 51.3093 12.3677V12.3676L51.3011 12.3678L44.6543 12.4757C44.6288 12.4753 44.6043 12.4652 44.5861 12.4473L44.2356 12.8039L44.5861 12.4473C44.5679 12.4294 44.5574 12.4052 44.5566 12.3798V10.8418C44.5566 9.40743 44.8191 8.0898 45.3867 6.82543C45.9498 5.57397 46.821 4.5185 48.0168 3.59757C49.2124 2.68393 50.789 1.91035 52.698 1.38995L52.7121 1.38611L52.7259 1.38145C54.5631 0.763294 56.8462 0.500167 59.5441 0.5C64.8457 0.500327 68.6287 1.51081 71.0022 3.48261Z" stroke="black"/>
</g>
</g>
<defs>
<filter id="filter0_d_49_477" x="40" y="0" width="39.0857" height="56" filterUnits="userSpaceOnUse" color-interpolation-filters="sRGB">
<feFlood flood-opacity="0" result="BackgroundImageFix"/>
<feColorMatrix in="SourceAlpha" type="matrix" values="0 0 0 0 0 0 0 0 0 0 0 0 0 0 0 0 0 0 127 0" result="hardAlpha"/>
<feOffset dy="4"/>
<feGaussianBlur stdDeviation="2"/>
<feComposite in2="hardAlpha" operator="out"/>
<feColorMatrix type="matrix" values="0 0 0 0 0 0 0 0 0 0 0 0 0 0 0 0 0 0 0.25 0"/>
<feBlend mode="normal" in2="BackgroundImageFix" result="effect1_dropShadow_49_477"/>
<feBlend mode="normal" in="SourceGraphic" in2="effect1_dropShadow_49_477" result="shape"/>
</filter>
<clipPath id="clip0_49_477">
<rect width="120" height="48" fill="white"/>
</clipPath>
</defs>
</svg>
